<svg preserveAspectRatio="none" overflow="visible" style="display: block;" width="14" height="14" viewBox="0 0 14 14" fill="none" xmlns="http://www.w3.org/2000/svg">
<g id="react-icons/PiCaretDown">
<path id="Vector" d="M11.6843 5.55977L7.30935 9.93477C7.26872 9.97545 7.22046 10.0077 7.16735 10.0297C7.11424 10.0518 7.05731 10.0631 6.99982 10.0631C6.94232 10.0631 6.88539 10.0518 6.83228 10.0297C6.77917 10.0077 6.73092 9.97545 6.69028 9.93477L2.31528 5.55977C2.23319 5.47768 2.18707 5.36634 2.18707 5.25024C2.18707 5.13415 2.23319 5.0228 2.31528 4.94071C2.39738 4.85862 2.50872 4.8125 2.62482 4.8125C2.74091 4.8125 2.85225 4.85862 2.93435 4.94071L6.99982 9.00673L11.0653 4.94071C11.1059 4.90006 11.1542 4.86782 11.2073 4.84582C11.2604 4.82382 11.3173 4.8125 11.3748 4.8125C11.4323 4.8125 11.4892 4.82382 11.5423 4.84582C11.5954 4.86782 11.6437 4.90006 11.6843 4.94071C11.725 4.98136 11.7572 5.02962 11.7792 5.08273C11.8012 5.13584 11.8126 5.19276 11.8126 5.25024C11.8126 5.30773 11.8012 5.36465 11.7792 5.41776C11.7572 5.47087 11.725 5.51913 11.6843 5.55977Z" fill="#2E2E2E"/>
</g>
</svg>
