<svg width="26" height="26" viewBox="0 0 26 26" fill="none" xmlns="http://www.w3.org/2000/svg">
<path d="M13.1599 11.6568C13.1409 11.6325 13.1166 11.6129 13.0889 11.5994C13.0612 11.5859 13.0308 11.5789 12.9999 11.5789C12.9691 11.5789 12.9387 11.5859 12.911 11.5994C12.8832 11.6129 12.859 11.6325 12.84 11.6568L9.99622 15.2546C9.97277 15.2846 9.95823 15.3205 9.95424 15.3583C9.95026 15.3961 9.95699 15.4343 9.97368 15.4685C9.99036 15.5027 10.0163 15.5314 10.0486 15.5515C10.0809 15.5716 10.1182 15.5823 10.1562 15.5822H12.0325V21.7369C12.0325 21.8486 12.124 21.94 12.2357 21.94H13.7591C13.8708 21.94 13.9622 21.8486 13.9622 21.7369V15.5847H15.8437C16.0138 15.5847 16.1077 15.3892 16.0036 15.2572L13.1599 11.6568Z" fill="#018A43"/>
<path d="M20.602 9.31147C19.4391 6.24429 16.476 4.06323 13.0051 4.06323C9.53418 4.06323 6.57109 6.24175 5.4082 9.30894C3.23223 9.88022 1.625 11.8632 1.625 14.2195C1.625 17.0251 3.89746 19.2976 6.70059 19.2976H7.71875C7.83047 19.2976 7.92188 19.2062 7.92188 19.0945V17.571C7.92188 17.4593 7.83047 17.3679 7.71875 17.3679H6.70059C5.84492 17.3679 5.04004 17.0277 4.44082 16.4107C3.84414 15.7962 3.52676 14.9685 3.55469 14.1103C3.57754 13.44 3.80605 12.8103 4.21992 12.2796C4.64395 11.7388 5.23809 11.3453 5.89824 11.1701L6.86055 10.9187L7.21348 9.9894C7.43184 9.4105 7.73652 8.86968 8.11992 8.37964C8.49842 7.89394 8.94678 7.46697 9.45039 7.11265C10.4939 6.37886 11.7229 5.99038 13.0051 5.99038C14.2873 5.99038 15.5162 6.37886 16.5598 7.11265C17.065 7.46812 17.5119 7.89468 17.8902 8.37964C18.2736 8.86968 18.5783 9.41304 18.7967 9.9894L19.1471 10.9162L20.1068 11.1701C21.483 11.5408 22.4453 12.7925 22.4453 14.2195C22.4453 15.0599 22.1178 15.8521 21.5236 16.4462C21.2323 16.7393 20.8856 16.9717 20.5039 17.1299C20.1221 17.2881 19.7127 17.369 19.2994 17.3679H18.2812C18.1695 17.3679 18.0781 17.4593 18.0781 17.571V19.0945C18.0781 19.2062 18.1695 19.2976 18.2812 19.2976H19.2994C22.1025 19.2976 24.375 17.0251 24.375 14.2195C24.375 11.8658 22.7729 9.8853 20.602 9.31147Z" fill="#018A43"/>
</svg>
